<svg width="35" height="35" viewBox="0 0 35 35" fill="none" xmlns="http://www.w3.org/2000/svg">
<g clip-path="url(#clip0_24_382)">
<rect width="35" height="35" fill="white"/>
<path d="M7.29171 13.125C7.67848 13.125 8.04941 13.2787 8.3229 13.5521C8.5964 13.8256 8.75004 14.1966 8.75004 14.5833C11.0413 14.58 13.2665 15.3508 15.0646 16.7708H18.2292C20.1717 16.7708 21.9188 17.6152 23.119 18.9569L27.7084 18.9583C29.0869 18.958 30.4373 19.3483 31.6029 20.0842C32.7686 20.8201 33.7017 21.8714 34.2942 23.116C30.8453 27.6675 25.2613 30.625 18.9584 30.625C14.8896 30.625 11.448 29.7456 8.66254 28.2071C8.56052 28.4886 8.37414 28.7319 8.12882 28.9036C7.88349 29.0753 7.59116 29.1672 7.29171 29.1667H2.91671C2.52993 29.1667 2.159 29.013 1.88551 28.7395C1.61202 28.466 1.45837 28.0951 1.45837 27.7083V14.5833C1.45837 14.1966 1.61202 13.8256 1.88551 13.5521C2.159 13.2787 2.52993 13.125 2.91671 13.125H7.29171ZM8.7515 17.5L8.75004 24.8223L8.81567 24.8704C11.4334 26.7079 14.843 27.7083 18.9584 27.7083C23.3392 27.7083 27.4152 26.0225 30.3844 23.1438L30.5784 22.9498L30.4034 22.804C29.7148 22.2646 28.88 21.9446 28.0073 21.8852L27.7084 21.875L24.6284 21.8735C24.7348 22.3431 24.7917 22.8317 24.7917 23.3333V24.7917H11.6667V21.875L21.5688 21.8735L21.5192 21.7598C21.2397 21.1758 20.8098 20.6767 20.2737 20.3138C19.7375 19.9509 19.1144 19.7372 18.4684 19.6948L18.2292 19.6875H13.9563C13.2786 18.9944 12.4692 18.4438 11.5756 18.0681C10.682 17.6925 9.72085 17.4993 8.7515 17.5ZM5.83337 16.0417H4.37504V26.25H5.83337V16.0417ZM19.9005 5.21355L20.4167 5.73126L20.933 5.21501C21.271 4.87408 21.6731 4.60327 22.1161 4.41815C22.5591 4.23302 23.0343 4.13721 23.5144 4.13623C23.9945 4.13525 24.4701 4.22911 24.9138 4.41242C25.3576 4.59573 25.7608 4.86488 26.1002 5.20443C26.4397 5.54397 26.7087 5.94722 26.8919 6.39102C27.0751 6.83482 27.1688 7.31043 27.1677 7.79055C27.1666 8.27067 27.0706 8.74584 26.8854 9.18878C26.7001 9.63172 26.4292 10.0337 26.0882 10.3717L20.4167 16.0417L14.7438 10.3688C14.4029 10.0307 14.1321 9.62864 13.9469 9.18564C13.7618 8.74265 13.666 8.26745 13.665 7.78733C13.664 7.30721 13.7579 6.83163 13.9412 6.38788C14.1245 5.94413 14.3937 5.54096 14.7332 5.20151C15.0728 4.86206 15.476 4.59302 15.9198 4.40983C16.3636 4.22665 16.8392 4.13292 17.3193 4.13404C17.7995 4.13516 18.2746 4.2311 18.7176 4.41635C19.1605 4.60161 19.5625 4.87252 19.9005 5.21355ZM16.8088 7.27709C16.6879 7.39729 16.613 7.55603 16.597 7.72574C16.581 7.89545 16.625 8.0654 16.7213 8.20605L16.8059 8.30667L20.4167 11.9146L24.0275 8.30667C24.1483 8.18602 24.223 8.02681 24.2384 7.85679C24.2539 7.68677 24.2092 7.51671 24.1121 7.37626L24.0275 7.27417C23.9067 7.15361 23.7474 7.07925 23.5774 7.06406C23.4074 7.04887 23.2374 7.09381 23.0971 7.19105L22.995 7.27563L20.4152 9.85396L17.8384 7.27271L17.7392 7.19105C17.5988 7.09399 17.4287 7.0493 17.2587 7.06476C17.0887 7.08022 16.9294 7.1563 16.8088 7.27709Z" fill="#1D9AD2"/>
</g>
<defs>
<clipPath id="clip0_24_382">
<rect width="35" height="35" fill="white"/>
</clipPath>
</defs>
</svg>
