<?xml version="1.0" standalone="no"?>
<!DOCTYPE svg PUBLIC "-//W3C//DTD SVG 20010904//EN"
 "http://www.w3.org/TR/2001/REC-SVG-20010904/DTD/svg10.dtd">
<svg version="1.0" xmlns="http://www.w3.org/2000/svg"
 width="512.000000pt" height="512.000000pt" viewBox="0 0 512.000000 512.000000"
 preserveAspectRatio="xMidYMid meet">

<g transform="translate(0.000000,512.000000) scale(0.100000,-0.100000)"
fill="#000000" stroke="none">
<path d="M1265 5114 c-11 -2 -45 -9 -75 -15 -217 -44 -429 -224 -522 -444 -53
-126 -53 -127 -53 -745 0 -623 -1 -606 57 -745 77 -186 257 -350 449 -412 l89
-28 0 -174 0 -173 -22 6 c-13 4 -59 9 -103 12 -336 24 -635 -257 -635 -596 0
-82 25 -184 64 -261 l34 -68 -37 -12 c-153 -49 -323 -188 -404 -330 -26 -46
-59 -120 -74 -164 l-27 -80 -4 -381 c-3 -371 -3 -383 17 -423 14 -27 35 -48
61 -61 38 -20 57 -20 970 -20 913 0 932 0 970 20 26 13 47 34 61 61 20 40 20
52 17 423 l-4 381 -27 80 c-15 44 -48 118 -74 164 -81 142 -251 281 -404 330
l-37 12 34 68 c68 135 80 299 33 441 -26 78 -31 90 -77 158 l-36 53 259 259
260 260 535 0 535 0 260 -260 259 -259 -36 -53 c-46 -68 -51 -80 -77 -158 -47
-142 -35 -306 33 -441 l34 -68 -37 -12 c-153 -49 -323 -188 -404 -330 -26 -46
-59 -120 -74 -164 l-27 -80 -4 -381 c-3 -371 -3 -383 17 -423 14 -27 35 -48
61 -61 38 -20 57 -20 970 -20 913 0 932 0 970 20 26 13 47 34 61 61 20 40 20
52 17 423 l-4 381 -27 80 c-15 44 -48 118 -74 164 -81 142 -251 281 -404 330
l-37 12 34 68 c173 346 -33 766 -416 847 -72 15 -200 14 -257 -2 l-23 -6 0
173 0 174 89 28 c192 62 372 226 449 412 57 136 57 137 57 595 0 455 -1 472
-53 595 -74 176 -228 331 -402 405 -123 52 -133 53 -520 57 l-365 5 -75 72
c-107 105 -208 164 -345 203 -54 16 -129 18 -760 19 -385 1 -709 0 -720 -2z
m1376 -304 c180 -34 325 -179 359 -359 13 -72 13 -1000 0 -1072 -34 -180 -179
-325 -359 -359 -30 -5 -201 -10 -383 -10 -283 0 -333 -2 -361 -16 -18 -9 -112
-96 -209 -192 l-178 -176 0 132 c0 114 -3 139 -20 173 -26 49 -76 73 -182 87
-197 25 -351 168 -388 361 -13 72 -13 1000 0 1072 33 176 179 324 351 358 64
13 1304 13 1370 1z m1200 -300 c180 -34 325 -179 359 -359 13 -70 13 -702 0
-772 -37 -193 -191 -336 -388 -361 -106 -14 -156 -38 -182 -87 -17 -34 -20
-59 -20 -173 l0 -132 -177 176 c-168 165 -220 208 -258 208 -12 0 -8 12 18 53
46 71 82 165 102 263 14 71 16 154 13 638 l-3 556 241 0 c133 0 265 -5 295
-10z m-2669 -2438 c59 -26 124 -91 151 -151 16 -34 22 -66 22 -121 0 -91 -24
-149 -85 -210 -61 -61 -119 -85 -210 -85 -336 0 -413 464 -95 578 62 22 153
18 217 -11z m3020 0 c59 -26 124 -91 151 -151 16 -34 22 -66 22 -121 0 -91
-24 -149 -85 -210 -61 -61 -119 -85 -210 -85 -336 0 -413 464 -95 578 62 22
153 18 217 -11z m-2761 -882 c180 -34 325 -179 359 -359 5 -30 10 -161 10
-292 l0 -239 -750 0 -750 0 0 239 c0 131 5 262 10 292 33 176 179 324 351 358
63 13 705 13 770 1z m3020 0 c180 -34 325 -179 359 -359 5 -30 10 -161 10
-292 l0 -239 -750 0 -750 0 0 239 c0 131 5 262 10 292 33 176 179 324 351 358
63 13 705 13 770 1z"/>
<path d="M2340 4499 c-19 -11 -146 -132 -282 -267 l-247 -246 -103 100 c-110
108 -148 134 -199 134 -72 0 -149 -77 -149 -149 0 -54 27 -90 179 -245 212
-216 257 -238 352 -177 57 37 632 616 653 658 34 68 6 153 -64 192 -48 27 -95
27 -140 0z"/>
</g>
</svg>
