<svg width="35" height="35" viewBox="0 0 35 35" fill="none" xmlns="http://www.w3.org/2000/svg">
<g clip-path="url(#clip0_24_386)">
<path d="M26.7808 16.0125C29.0588 18.2889 29.0588 21.9829 26.7808 24.2608L18.5311 32.5106C17.9623 33.0794 17.0377 33.0794 16.469 32.5106L8.21918 24.2608C5.94126 21.9829 5.94126 18.2889 8.21918 16.011C10.4971 13.7331 14.1911 13.7331 16.469 16.011L17.4986 17.0421L18.5311 16.011C20.809 13.7331 24.5029 13.7346 26.7808 16.0125ZM10.2813 18.0716C9.14376 19.2106 9.14376 21.0583 10.2813 22.1973L17.5 29.416L24.7188 22.1973C25.8563 21.0583 25.8563 19.2106 24.7188 18.0716C23.5798 16.9341 21.7321 16.9341 20.5917 18.0746L17.4971 21.1633L14.4054 18.0716C13.2679 16.9341 11.4202 16.9341 10.2813 18.0716ZM17.5 1.45831C20.7229 1.45831 23.3333 4.06873 23.3333 7.29165C23.3333 10.5146 20.7229 13.125 17.5 13.125C14.2771 13.125 11.6667 10.5146 11.6667 7.29165C11.6667 4.06873 14.2771 1.45831 17.5 1.45831ZM17.5 4.37498C15.8886 4.37498 14.5833 5.68019 14.5833 7.29165C14.5833 8.9031 15.8886 10.2083 17.5 10.2083C19.1115 10.2083 20.4167 8.9031 20.4167 7.29165C20.4167 5.68019 19.1115 4.37498 17.5 4.37498Z" fill="#1D9AD2"/>
</g>
<defs>
<clipPath id="clip0_24_386">
<rect width="35" height="35" fill="white"/>
</clipPath>
</defs>
</svg>
